{"accessors":[{"bufferView":2,"componentType":5126,"count":10861,"max":[2,2.299999952316284,2],"min":[-2,0,-2],"type":"VEC3"},{"bufferView":2,"byteOffset":130332,"componentType":5126,"count":10861,"max":[1,1,1],"min":[-1,-1,-1],"type":"VEC3"},{"bufferView":1,"componentType":5126,"count":10861,"max":[0.9863280057907104,-0.5],"min":[0.04882809892296791,-0.5],"type":"VEC2"},{"bufferView":0,"componentType":5125,"count":22032,"type":"SCALAR"}],"asset":{"extras":{"author":"dibesfer (https://sketchfab.com/dibesfer)","license":"CC-BY-4.0 (http://creativecommons.org/licenses/by/4.0/)","source":"https://sketchfab.com/3d-models/dibesfer-voxel-garden-house-49256c7137a844ffba9ba7f9fbd6f223","title":"Dibesfer Voxel Garden House"},"generator":"Sketchfab-12.82.0","version":"2.0"},"bufferViews":[{"buffer":0,"byteLength":88128,"name":"floatBufferViews","target":34963},{"buffer":0,"byteLength":86888,"byteOffset":88128,"byteStride":8,"name":"floatBufferViews","target":34962},{"buffer":0,"byteLength":260664,"byteOffset":175016,"byteStride":12,"name":"floatBufferViews","target":34962}],"buffers":[{"byteLength":435680,"uri":"data:application/octet-stream;base64,"}],"images":[{"uri":"data:application/octet-stream;base64,"}],"materials":[{"name":"material_0","pbrMetallicRoughness":{"baseColorTexture":{"index":0},"metallicFactor":0}}],"meshes":[{"name":"Object_0","primitives":[{"attributes":{"NORMAL":1,"POSITION":0,"TEXCOORD_0":2},"indices":3,"material":0,"mode":4}]}],"nodes":[{"children":[1],"matrix":[1,0,0,0,0,2.220446049250313e-16,-1,0,0,1,2.220446049250313e-16,0,0,0,0,1],"name":"Sketchfab_model"},{"children":[2],"name":"root"},{"children":[3],"matrix":[1,0,0,0,0,2.220446049250313e-16,1,0,0,-1,2.220446049250313e-16,0,0,0,0,1],"name":"GLTF_SceneRootNode"},{"children":[4],"name":"_0"},{"mesh":0,"name":"Object_4"}],"samplers":[{"magFilter":9729,"minFilter":9729,"wrapS":10497,"wrapT":10497}],"scene":0,"scenes":[{"name":"Sketchfab_Scene","nodes":[0]}],"textures":[{"sampler":0,"source":0}]}